# Dodecahedron (vertices only)
o Dodecahedron
# cube corners (8)
v -1.000000 -1.000000 -1.000000
v -1.000000 -1.000000 1.000000
v -1.000000 1.000000 -1.000000
v -1.000000 1.000000 1.000000
v 1.000000 -1.000000 -1.000000
v 1.000000 -1.000000 1.000000
v 1.000000 1.000000 -1.000000
v 1.000000 1.000000 1.000000
# golden rectangles (12)
# (0, ±1/phi, ±phi)
v 0.000000 0.61803399 1.61803399
v 0.000000 -0.61803399 1.61803399
v 0.000000 0.61803399 -1.61803399
v 0.000000 -0.61803399 -1.61803399
# (±1/phi, ±phi, 0)
v 0.61803399 1.61803399 0.000000
v -0.61803399 1.61803399 0.000000
v 0.61803399 -1.61803399 0.000000
v -0.61803399 -1.61803399 0.000000
# (±phi, 0, ±1/phi)
v 1.61803399 0.000000 0.61803399
v -1.61803399 0.000000 0.61803399
v 1.61803399 0.000000 -0.61803399
v -1.61803399 0.000000 -0.61803399
